<?xml version="1.0" standalone="no"?>
<!DOCTYPE svg PUBLIC "-//W3C//DTD SVG 20010904//EN"
 "http://www.w3.org/TR/2001/REC-SVG-20010904/DTD/svg10.dtd">
<svg version="1.0" xmlns="http://www.w3.org/2000/svg"
 width="445.000000pt" height="369.000000pt" viewBox="0 0 445.000000 369.000000"
 preserveAspectRatio="xMidYMid meet">

<g transform="translate(0.000000,369.000000) scale(0.100000,-0.100000)"
fill="#000000" stroke="none">
<path d="M896 3645 c-8 -9 -18 -30 -21 -48 -3 -18 -5 -475 -3 -1017 l3 -985
31 -71 c94 -215 310 -370 629 -449 393 -98 901 -96 1296 5 318 81 551 264 618
484 21 67 21 83 21 1053 0 1097 3 1043 -65 1043 -66 0 -65 7 -65 -483 l0 -439
-37 56 c-49 72 -152 178 -228 234 -130 96 -343 182 -540 218 -81 15 -150 19
-365 19 -236 0 -277 -3 -377 -23 -201 -40 -361 -103 -494 -192 -77 -52 -213
-186 -257 -254 l-31 -48 -3 435 c-3 411 -4 436 -22 456 -22 25 -68 28 -90 6z
m1559 -520 c460 -66 750 -290 857 -662 22 -75 23 -93 23 -468 l0 -390 -34 -64
c-43 -84 -126 -166 -226 -224 -127 -75 -269 -120 -479 -154 -160 -26 -692 -26
-851 0 -365 59 -621 200 -711 392 -24 50 -24 52 -24 431 0 370 1 384 24 476
13 52 36 119 51 149 145 287 401 452 794 514 118 18 450 18 576 0z"/>
<path d="M1550 2444 c-172 -46 -316 -211 -342 -394 -38 -256 128 -497 380
-549 68 -14 1087 -15 1162 -1 166 31 321 170 371 331 23 73 25 213 5 280 -37
120 -129 235 -232 291 -106 57 -118 58 -729 57 -460 0 -570 -3 -615 -15z
m1263 -148 c77 -39 148 -116 175 -189 26 -68 29 -170 8 -241 -31 -103 -138
-202 -248 -232 -81 -21 -1069 -20 -1152 1 -166 43 -277 199 -264 371 9 124 84
232 202 289 l71 35 575 -3 575 -2 58 -29z"/>
<path d="M1605 2151 c-142 -64 -152 -259 -17 -338 119 -70 270 3 288 139 21
150 -132 263 -271 199z m125 -131 c28 -28 25 -64 -6 -89 -15 -12 -32 -21 -39
-21 -23 0 -65 41 -65 64 0 30 35 66 65 66 14 0 34 -9 45 -20z"/>
<path d="M2574 2151 c-49 -23 -88 -71 -103 -127 -37 -138 95 -270 233 -233
163 43 198 254 58 349 -47 33 -132 38 -188 11z m128 -128 c27 -24 23 -68 -9
-92 -30 -24 -58 -20 -85 11 -23 26 -23 40 3 72 24 30 63 34 91 9z"/>
<path d="M1317 428 c-37 -216 -67 -396 -67 -400 0 -5 18 -8 40 -8 37 0 41 3
47 30 6 34 15 37 34 13 22 -26 90 -53 134 -53 86 0 164 61 212 165 22 49 28
78 31 156 5 108 -6 153 -46 201 -60 71 -175 77 -252 12 -16 -14 -30 -24 -30
-21 0 2 11 64 25 137 14 73 25 139 25 146 0 10 -13 14 -43 14 l-43 0 -67 -392z
m286 71 c43 -19 62 -66 60 -149 -2 -129 -60 -236 -139 -256 -69 -17 -154 31
-154 88 0 75 34 234 56 264 41 55 120 79 177 53z"/>
<path d="M2684 762 c-93 -33 -142 -80 -163 -159 -28 -105 36 -188 189 -244
114 -42 150 -72 150 -126 0 -81 -74 -142 -172 -143 -88 0 -142 36 -160 107
-10 42 -11 43 -54 43 -41 0 -44 -2 -44 -27 1 -43 33 -105 73 -140 103 -91 307
-77 401 28 39 42 51 86 44 158 -8 82 -58 128 -201 182 -100 37 -137 71 -137
122 0 98 131 167 233 123 45 -19 68 -48 74 -95 6 -41 6 -41 49 -41 43 0 44 0
44 34 0 50 -16 86 -58 129 -62 64 -168 83 -268 49z"/>
<path d="M156 753 c-6 -21 -126 -709 -126 -724 0 -5 20 -9 44 -9 52 0 46 -13
77 168 l23 133 89 -3 90 -3 51 -145 51 -145 52 -3 53 -3 -30 80 c-17 45 -43
117 -60 161 l-29 79 36 18 c46 22 101 77 119 119 21 51 18 149 -7 193 -44 78
-110 100 -301 101 -112 0 -127 -2 -132 -17z m299 -77 c67 -28 86 -135 37 -204
-38 -52 -94 -72 -205 -72 -53 0 -97 3 -97 6 0 13 41 249 46 267 5 14 18 17 95
17 55 0 103 -6 124 -14z"/>
<path d="M890 581 c-79 -24 -136 -78 -177 -166 -25 -53 -28 -72 -28 -155 0
-83 3 -101 25 -140 14 -24 45 -58 68 -75 39 -27 51 -30 115 -30 86 1 134 22
191 86 57 62 79 120 84 220 4 72 1 93 -18 137 -45 104 -153 155 -260 123z
m135 -93 c38 -30 55 -76 55 -151 0 -104 -45 -198 -110 -232 -47 -24 -113 -19
-149 10 -40 35 -54 83 -49 169 9 135 81 226 179 226 32 0 55 -7 74 -22z"/>
<path d="M2070 581 c-78 -25 -147 -89 -183 -170 -26 -59 -34 -184 -17 -248 18
-63 81 -127 140 -143 186 -50 352 120 338 346 -9 131 -80 212 -195 220 -32 2
-69 0 -83 -5z m139 -96 c40 -35 54 -83 49 -170 -9 -131 -81 -225 -174 -225
-92 0 -134 51 -134 163 0 155 72 257 182 257 35 0 54 -6 77 -25z"/>
<path d="M3879 576 c-20 -7 -50 -22 -66 -34 l-29 -21 4 30 c4 28 3 29 -36 29
l-41 0 -10 -52 c-6 -29 -27 -147 -46 -263 -20 -116 -38 -218 -41 -228 -5 -16
0 -18 42 -15 l48 3 32 190 c18 105 36 200 39 212 9 36 70 75 125 81 44 4 52 2
80 -26 37 -38 37 -42 0 -262 -16 -96 -30 -181 -30 -187 0 -9 15 -13 43 -13
l44 0 33 195 c20 119 41 207 52 225 42 69 145 94 193 45 19 -19 25 -35 25 -71
0 -39 -38 -297 -55 -371 -5 -21 -2 -23 40 -23 52 0 44 -19 80 196 32 194 33
260 2 305 -58 88 -183 90 -283 6 l-31 -26 -12 25 c-13 30 -83 64 -131 63 -19
0 -51 -6 -71 -13z"/>
<path d="M3140 573 c0 -5 -14 -87 -30 -183 -16 -96 -30 -193 -30 -215 0 -50
31 -119 62 -139 55 -36 152 -32 212 9 l36 24 0 -24 c0 -22 4 -25 40 -25 36 0
40 2 45 33 3 17 25 142 49 277 l42 245 -39 3 c-22 2 -43 0 -47 -5 -4 -4 -22
-96 -40 -203 -18 -107 -39 -205 -47 -217 -20 -30 -91 -63 -135 -63 -49 0 -78
26 -84 75 -3 23 8 118 25 222 17 99 31 184 31 187 0 3 -20 6 -45 6 -25 0 -45
-3 -45 -7z"/>
</g>
</svg>
